HIERARCHY
ROOT Hips
{
	OFFSET 0.00000 0.00000 0.00000
	CHANNELS 6 Xposition Yposition Zposition Zrotation Yrotation Xrotation 
	JOINT LHipJoint
	{
		OFFSET 0 0 0
		CHANNELS 3 Zrotation Yrotation Xrotation
		JOINT LeftUpLeg
		{
			OFFSET 1.62964 -1.40469 0.78906
			CHANNELS 3 Zrotation Yrotation Xrotation
			JOINT LeftLeg
			{
				OFFSET 2.29640 -6.30932 0.00000
				CHANNELS 3 Zrotation Yrotation Xrotation
				JOINT LeftFoot
				{
					OFFSET 2.29451 -6.30412 0.00000
					CHANNELS 3 Zrotation Yrotation Xrotation
					JOINT LeftToeBase
					{
						OFFSET 0.03611 -0.09921 1.56387
						CHANNELS 3 Zrotation Yrotation Xrotation
						End Site
						{
							OFFSET 0.00000 -0.00000 0.80291
						}
					}
				}
			}
		}
	}
	JOINT RHipJoint
	{
		OFFSET 0 0 0
		CHANNELS 3 Zrotation Yrotation Xrotation
		JOINT RightUpLeg
		{
			OFFSET -1.73712 -1.40469 0.78906
			CHANNELS 3 Zrotation Yrotation Xrotation
			JOINT RightLeg
			{
				OFFSET -2.28137 -6.26801 0.00000
				CHANNELS 3 Zrotation Yrotation Xrotation
				JOINT RightFoot
				{
					OFFSET -2.28681 -6.28298 0.00000
					CHANNELS 3 Zrotation Yrotation Xrotation
					JOINT RightToeBase
					{
						OFFSET -0.15927 -0.43759 1.61103
						CHANNELS 3 Zrotation Yrotation Xrotation
						End Site
						{
							OFFSET -0.00000 -0.00000 0.84630
						}
					}
				}
			}
		}
	}
	JOINT LowerBack
	{
		OFFSET 0 0 0
		CHANNELS 3 Zrotation Yrotation Xrotation
		JOINT Spine
		{
			OFFSET -0.04227 2.04338 -0.00225
			CHANNELS 3 Zrotation Yrotation Xrotation
			JOINT Spine1
			{
				OFFSET -0.02148 2.04482 -0.04273
				CHANNELS 3 Zrotation Yrotation Xrotation
				JOINT Neck
				{
					OFFSET 0 0 0
					CHANNELS 3 Zrotation Yrotation Xrotation
					JOINT Neck1
					{
						OFFSET 0.09180 1.44629 0.19359
						CHANNELS 3 Zrotation Yrotation Xrotation
						JOINT Head
						{
							OFFSET 0.00887 1.40645 0.14750
							CHANNELS 3 Zrotation Yrotation Xrotation
							End Site
							{
								OFFSET -0.00669 1.50671 0.03707
							}
						}
					}
				}
				JOINT LeftShoulder
				{
					OFFSET 0 0 0
					CHANNELS 3 Zrotation Yrotation Xrotation
					JOINT LeftArm
					{
						OFFSET 2.17674 1.86763 -0.06520
						CHANNELS 3 Zrotation Yrotation Xrotation
						JOINT LeftForeArm
						{
							OFFSET 4.65776 -0.00000 0.00000
							CHANNELS 3 Zrotation Yrotation Xrotation
							JOINT LeftHand
							{
								OFFSET 3.55539 -0.00000 0.00000
								CHANNELS 3 Zrotation Yrotation Xrotation
								JOINT LeftFingerBase
								{
									OFFSET 0 0 0
									CHANNELS 3 Zrotation Yrotation Xrotation
									JOINT LeftHandIndex1
									{
										OFFSET 0.70726 -0.00000 0.00000
										CHANNELS 3 Zrotation Yrotation Xrotation
										End Site
										{
											OFFSET 0.57022 -0.00000 0.00000
										}
									}
								}
								JOINT LThumb
								{
									OFFSET 0 0 0
									CHANNELS 3 Zrotation Yrotation Xrotation
									End Site
									{
										OFFSET 0.57892 -0.00000 0.57892
									}
								}
							}
						}
					}
				}
				JOINT RightShoulder
				{
					OFFSET 0 0 0
					CHANNELS 3 Zrotation Yrotation Xrotation
					JOINT RightArm
					{
						OFFSET -2.80694 1.55459 -0.32496
						CHANNELS 3 Zrotation Yrotation Xrotation
						JOINT RightForeArm
						{
							OFFSET -4.71925 -0.00000 -0.00000
							CHANNELS 3 Zrotation Yrotation Xrotation
							JOINT RightHand
							{
								OFFSET -3.56990 -0.00000 0.00000
								CHANNELS 3 Zrotation Yrotation Xrotation
								JOINT RightFingerBase
								{
									OFFSET 0 0 0
									CHANNELS 3 Zrotation Yrotation Xrotation
									JOINT RightHandIndex1
									{
										OFFSET -0.50776 -0.00000 0.00000
										CHANNELS 3 Zrotation Yrotation Xrotation
										End Site
										{
											OFFSET -0.40937 -0.00000 0.00000
										}
									}
								}
								JOINT RThumb
								{
									OFFSET 0 0 0
									CHANNELS 3 Zrotation Yrotation Xrotation
									End Site
									{
										OFFSET -0.41562 -0.00000 0.41562
									}
								}
							}
						}
					}
				}
			}
		}
	}
}
MOTION
Frames: 7
Frame Time: 0.285714
0.00 0.00 0.00 0 0 0 0 0 0 -21 0 0 0 0 0 0 0 0 0 0 0 0 0 0 21 0 0 0 0 0 0 0 0 0 0 0 0 0 0 0 0 0 0 0 0 0 0 -16 0 0 21 0 0 11 0 0 0 -8 0 0 0 0 0 0 0 0 0 0 0 0 0 0 0 0 0 0 0 0 8 0 0 0 0 0 0 0 0 0 0 0 0 0 0 0 0 0
0.00 0.00 0.00 179.0330 -1.6145 -158.7850 0.0000 0.0000 0.0000 -19.3163 -16.9554 -18.6235 0.4381 4.2474 11.7738 0.3040 -1.4371 -10.0108 3.5103 -11.4786 -33.9115 0.0000 0.0000 0.0000 18.8998 15.3370 -17.3203 -0.3568 -3.8374 10.6196 -1.3564 -1.8223 -22.7289 -1.4930 7.7187 -21.8629 -5.7752 -1.8334 -27.4552 -0.5564 -1.0441 -1.1295 2.2284 -1.0518 14.1846 -1.6103 -1.5536 -2.4478 3.1496 -1.9619 10.4373 1.2581 -0.7566 3.8905 0.0000 0.0000 0.0000 -86.1808 -3.6869 6.2658 3.4199 -5.8990 -0.1763 -0.0000 -0.0000 22.1869 21.0926 -8.3816 -3.2180 -7.1250 0.0000 -0.0000 -4.1731 21.0161 2.4052 0.0000 0.0000 0.0000 91.2459 -0.6594 3.8967 -11.3737 18.8588 -1.8950 0.0000 0.0000 9.1212 -10.3201 -47.2693 7.6185 7.1250 -0.0000 -0.0000 49.5201 -72.4860 -34.5724
0.00 0.00 0.00 179.5580 -0.6518 -144.5120 0.0000 0.0000 0.0000 -8.8255 -26.2019 -44.2418 2.4086 9.6697 27.9136 0.9457 -1.2691 -17.9959 2.4879 -9.8159 -28.3827 0.0000 0.0000 0.0000 12.4124 23.9662 -40.9726 -1.7040 -8.2202 23.3849 -2.1638 -1.7937 -28.5030 -1.8490 8.5443 -24.3798 -4.6129 -1.3359 -18.7059 0.3163 -0.8298 1.4950 2.7356 -0.7368 12.3064 2.9751 -3.2973 -8.3793 -3.7095 -4.1255 13.0645 -1.9119 -2.0324 5.1581 0.0000 0.0000 0.0000 -79.9204 7.2037 23.5910 11.9269 -19.6949 -2.0776 -0.0000 -0.0000 5.5051 19.0163 -11.1510 -3.8133 -7.1250 0.0000 -0.0000 -5.6870 18.2363 3.6397 0.0000 0.0000 0.0000 88.8296 -8.8333 0.6486 -12.5685 20.6517 -2.2989 0.0000 0.0000 5.3284 -8.7573 -50.8008 6.8076 7.1250 -0.0000 -0.0000 60.9517 -73.7091 -45.2922
0.00 0.00 0.00 179.3810 0.3435 -142.9030 0.0000 0.0000 0.0000 -7.7166 -25.1075 -55.0827 5.9753 14.4043 44.8824 1.7043 -6.9519 -23.4167 2.6592 -10.1218 -29.3721 0.0000 0.0000 0.0000 10.3304 25.0828 -52.0696 -5.0712 -13.4636 41.1296 -3.6710 2.4112 -35.7652 -1.6752 8.1541 -23.1831 -5.2816 -1.3776 -14.4388 -0.2211 -0.8244 2.1429 2.5607 -0.6904 10.5628 2.9909 -3.4619 -8.3670 -3.1232 -4.4682 12.6830 -1.7486 -2.1765 5.0411 0.0000 0.0000 0.0000 -80.2702 5.4447 24.7125 11.9274 -19.6957 -2.0778 -0.0000 -0.0000 5.2801 19.5089 -11.4557 -4.0250 -7.1250 0.0000 -0.0000 -5.3460 17.8780 3.4618 0.0000 0.0000 0.0000 89.8492 -5.8102 4.5668 -13.0084 21.2995 -2.4563 0.0000 0.0000 3.6347 -8.8883 -51.1303 6.9421 7.1250 -0.0000 -0.0000 61.9167 -73.8939 -46.3317
0.00 0.00 0.00 176.9090 0.9958 -149.4750 0.0000 0.0000 0.0000 -17.4986 -20.4485 -36.5109 5.3748 13.7938 42.4178 0.0154 -2.9020 -2.8213 3.9892 -12.1460 -36.2503 0.0000 0.0000 0.0000 14.2215 21.3017 -31.0082 -3.7782 -11.8592 35.2358 -1.0632 -1.6190 -20.1270 -3.5519 11.5390 -34.1201 -4.5459 -1.9647 -20.0099 -1.5332 -1.0278 -1.1702 0.6459 -0.4933 10.0251 2.3005 -2.3968 -9.9702 -1.6024 -2.9933 16.5598 -1.1304 -1.2775 6.6210 0.0000 0.0000 0.0000 -78.7313 11.1737 33.2768 19.4740 -30.0034 -5.2658 -0.0000 0.0000 -0.7524 23.8024 -11.8967 -5.1958 -7.1250 0.0000 -0.0000 -2.3594 17.0199 1.5668 0.0000 0.0000 0.0000 86.5359 -16.2759 26.0524 -26.2596 37.4639 -9.0451 0.0000 -0.0000 -7.5434 -12.1046 -51.0185 9.4650 7.1250 -0.0000 -0.0000 59.5225 -75.0607 -45.4825
0.00 0.00 0.00 176.8410 -0.0713 -149.8690 0.0000 0.0000 0.0000 -17.1597 -18.7582 -35.6584 4.3222 12.5772 37.8058 0.6418 5.2470 14.2668 2.9247 -10.5721 -30.8501 0.0000 0.0000 0.0000 14.0772 18.3953 -29.4068 -2.8372 -10.4267 30.3700 0.0581 -4.3155 -0.9140 -3.0086 10.7089 -31.3043 -4.4909 -2.0365 -22.4488 -1.0006 -1.8300 -1.1217 0.8358 -1.2289 11.4577 2.0344 -2.1648 -9.7044 -2.2493 -2.1050 20.2807 -1.2396 -0.7568 7.7945 -0.0000 -0.0000 0.0000 -79.2168 10.6758 33.5765 19.6002 -30.1576 -5.3290 -0.0000 0.0000 -4.8322 23.8537 -11.7679 -5.1530 -7.1250 0.0000 -0.0000 -2.3171 17.1542 1.5319 -0.0000 -0.0000 0.0000 85.6821 -17.0212 26.8698 -29.2998 40.2856 -10.9541 0.0000 -0.0000 -10.2033 -10.3888 -49.8713 7.9795 7.1250 -0.0000 -0.0000 56.9188 -73.9001 -42.0405
0.00 0.00 0.00 177.2080 -0.1176 -151.4700 0.0000 0.0000 0.0000 -14.8090 -19.9259 -38.1780 1.5563 7.8734 22.3302 0.6146 12.5040 15.4069 4.7118 -13.0517 -39.5622 0.0000 0.0000 0.0000 9.7361 21.4024 -36.9401 -1.4065 -7.5016 21.2102 0.2033 -11.9448 5.1375 -2.1576 9.1868 -26.3816 -4.2503 -2.1362 -20.0513 -0.3334 -1.9768 0.2409 1.4492 -1.2399 11.6986 0.2157 -1.7940 -7.7399 0.1667 -1.6856 19.6274 -0.0835 -0.4506 7.2825 0.0000 -0.0000 0.0000 -78.8618 5.7275 36.1813 19.4444 -29.9671 -5.2510 -0.0000 0.0000 -2.8937 23.7485 -12.5738 -5.4712 -7.1250 0.0000 -0.0000 -2.4325 16.2929 1.6539 0.0000 -0.0000 0.0000 87.8749 -9.5159 24.5766 -26.9035 38.0870 -9.4395 0.0000 -0.0000 -8.9548 -7.4550 -49.7857 5.7063 7.1250 -0.0000 -0.0000 58.7827 -72.7799 -42.4346
